<?xml version="1.0" encoding="utf-8"?>
<!-- Generator: Adobe Illustrator 27.3.1, SVG Export Plug-In . SVG Version: 6.00 Build 0)  -->
<svg version="1.1" id="Layer_1" xmlns="http://www.w3.org/2000/svg" xmlns:xlink="http://www.w3.org/1999/xlink" x="0px" y="0px"
	 viewBox="0 0 1920 1080" style="enable-background:new 0 0 1920 1080;" xml:space="preserve">
<style type="text/css">
	.st0{fill:#131313;}
	.st1{fill:#E2393B;}
	.st2{fill:#FFFFFF;}
</style>
<rect x="-15.7" y="-22.1" class="st0" width="1963.9" height="1167.3"/>
<g>
	<g>
		<g>
			<polygon class="st1" points="621,555.4 621,570 607.5,570 607.5,583.5 592.9,583.5 592.9,570 579.4,570 579.4,555.4 592.9,555.4 
				592.9,541.9 607.5,541.9 607.5,555.4 			"/>
			<path class="st1" d="M759.1,576.1c0,4.4-3.6,8-8,8s-8-3.6-8-8c0-4.4,3.6-8,8-8S759.1,571.7,759.1,576.1z"/>
			<path class="st1" d="M759.1,546.4c0,4.4-3.6,8-8,8s-8-3.6-8-8c0-4.4,3.6-8,8-8S759.1,542,759.1,546.4z"/>
			<path class="st1" d="M774,561.3c0,4.4-3.6,8-8,8c-4.4,0-8-3.6-8-8c0-4.4,3.6-8,8-8C770.4,553.2,774,556.8,774,561.3z"/>
			<path class="st1" d="M744.3,561.3c0,4.4-3.6,8-8,8c-4.4,0-8-3.6-8-8c0-4.4,3.6-8,8-8C740.7,553.2,744.3,556.8,744.3,561.3z"/>
			<path class="st1" d="M723.7,593.7c0,7.8-6.3,14.1-14.1,14.1c-7.8,0-14.1-6.3-14.1-14.1c0-7.8,6.3-14.1,14.1-14.1
				C717.4,579.6,723.7,585.9,723.7,593.7z"/>
			<path class="st1" d="M656.9,593.7c0,7.8-6.3,14.1-14.1,14.1c-7.8,0-14.1-6.3-14.1-14.1c0-7.8,6.3-14.1,14.1-14.1
				C650.5,579.6,656.9,585.9,656.9,593.7z"/>
			<path class="st1" d="M682.2,571.3c0,2.6-2.1,4.8-4.8,4.8s-4.8-2.1-4.8-4.8c0-2.6,2.1-4.8,4.8-4.8S682.2,568.7,682.2,571.3z"/>
			<rect x="654.8" y="553.3" class="st1" width="10.8" height="6.9"/>
			<polygon class="st1" points="698.6,556.7 698.6,556.8 687.8,560.2 687.8,553.3 			"/>
		</g>
		<path class="st1" d="M828.4,464.5C814.4,446,794,434,771,430.9c-11.1-1.5-22-0.8-32.2,1.6c2.2,2.1,4.4,4.3,6.6,6.6
			c7.9-1.4,16.2-1.6,24.6-0.5c42.6,5.8,72.6,44.7,67.9,87.1h7.8C847.9,503.8,841.8,482.1,828.4,464.5z"/>
		<path class="st1" d="M676.7,501.8c1.7,0,3.2,0.5,4.4,1.4c2.4-13.4,8-25.5,16-35.5c-1.5-1.2-3-2.5-4.5-3.6
			c-0.5-0.4-1.1-0.8-1.6-1.2c-8.9,11.2-15.1,24.6-17.6,39.6C674.4,502.1,675.5,501.8,676.7,501.8z"/>
	</g>
	<path class="st2" d="M982.6,525.7h-21.1c-3.2,0-4.7,1.6-4.7,4.9v62.1c0,4.6-0.4,8.4-1.1,11.4c-0.7,3-2,5.4-3.8,7.2
		c-1.8,1.8-4.2,3.1-7.2,3.9c-3,0.8-6.9,1.2-11.6,1.2H878c-4.7,0-8.5-0.4-11.4-1.2c-2.9-0.8-5.1-2.1-6.7-3.9
		c-1.6-1.8-2.7-4.2-3.2-7.2c-0.6-3-0.9-6.8-0.9-11.4v-62.1c0-3.3-1.6-4.9-4.7-4.9h-5.4h-7.8h-7.8c-3.3,0-4.9,1.6-4.9,4.9v69.6
		c0,7.7,0.9,14.4,2.6,19.9c1.7,5.5,4.5,10,8.5,13.5c3.9,3.5,9.2,6.1,15.7,7.6c6.5,1.6,14.6,2.4,24.4,2.4h59.9
		c9.6,0,17.7-0.8,24.3-2.4c6.6-1.6,11.8-4.1,15.8-7.6c3.9-3.5,6.8-8,8.5-13.5c1.7-5.5,2.6-12.1,2.6-19.9v-69.6
		C987.3,527.4,985.7,525.7,982.6,525.7z"/>
	<path class="st2" d="M1155.5,544.5c-1.1-4.5-3.1-8.2-5.9-10.9c-2.8-2.8-6.6-4.8-11.4-6c-4.8-1.2-10.8-1.8-18.2-1.8h-62.9
		c-9.7,0-17.9,0.8-24.4,2.5c-6.5,1.6-11.8,4.2-15.7,7.7c-3.9,3.5-6.8,8-8.5,13.5c-1.7,5.5-2.6,12.1-2.6,19.9v30.9
		c0,7.7,0.9,14.4,2.6,19.9c1.7,5.5,4.5,10,8.5,13.5c3.9,3.5,9.2,6.1,15.7,7.6c6.5,1.6,14.6,2.4,24.4,2.4h92.6c2.6,0,3.9-1.3,3.9-3.9
		v-18c0-2.6-1.3-3.9-3.9-3.9h-89.6c-9.3,0-15.6-1.5-18.8-4.5c-3.2-3-4.8-7.9-4.8-14.6v-5.2h108.5c4.2,0,7.2-0.9,9.2-2.7
		c2-1.8,3-5,3-9.6v-20.4C1157.2,554.5,1156.6,549,1155.5,544.5z M1127.1,570.8c0,2.4-1.2,3.6-3.6,3.6h-87v-5.8
		c0-6.9,1.6-11.8,4.8-14.7c3.2-2.9,9.5-4.4,18.8-4.4h53.9c5,0,8.5,0.9,10.3,2.8c1.9,1.9,2.8,5,2.8,9.5V570.8z"/>
	<path class="st2" d="M1288.9,572.8h-72.4c-4.4,0-7.5-0.8-9.2-2.5c-1.7-1.6-2.6-3.9-2.6-6.8v-3.2c0-3.1,0.9-5.5,2.6-7.2
		c1.7-1.6,4.8-2.5,9.2-2.5h96.9c2.6,0,3.9-1.3,3.9-3.9v-17.2c0-2.6-1.3-3.9-3.9-3.9h-104.8c-6.3,0-11.6,0.7-15.9,2
		c-4.3,1.4-7.8,3.3-10.4,5.9c-2.7,2.6-4.5,5.7-5.7,9.3c-1.1,3.7-1.7,7.7-1.7,12.1v9.5c0,9.5,2.6,16.6,7.7,21.6
		c5.2,4.9,13.7,7.4,25.8,7.4h72.2c4.4,0,7.6,0.8,9.3,2.4c1.8,1.6,2.7,3.8,2.7,6.7v5.8c0,3.7-0.9,6.4-2.7,7.9
		c-1.8,1.6-4.9,2.4-9.3,2.4h-101.8c-2.6,0-3.9,1.3-3.9,3.9v17.2c0,2.6,1.3,3.9,3.9,3.9h110c6.3,0,11.6-0.7,15.9-2
		c4.3-1.4,7.8-3.3,10.4-5.9c2.6-2.6,4.5-5.7,5.7-9.5c1.1-3.7,1.7-7.9,1.7-12.7v-12c0-9.2-2.6-16.3-7.7-21.3
		C1309.6,575.3,1301,572.8,1288.9,572.8z"/>
	<path class="st2" d="M1428,618.3h-20.8c-7.2,0-12-1.4-14.4-4.2c-2.4-2.8-3.7-7.2-3.7-13.2v-49.8h37.6c2.6,0,3.9-1.3,3.9-3.9v-17.6
		c0-2.6-1.3-3.9-3.9-3.9h-37.6v-28.4c0-3.1-1.6-4.7-4.7-4.7h-21.3c-3.2,0-4.7,1.6-4.7,4.7v28.4H1338c-2.6,0-3.9,1.3-3.9,3.9v17.6
		c0,2.6,1.3,3.9,3.9,3.9h20.4v49.8c0,7.6,0.6,14.1,1.9,19.5c1.3,5.4,3.6,9.9,7,13.3c3.4,3.4,7.8,5.9,13.4,7.5
		c5.6,1.6,12.7,2.4,21.3,2.4h26c2.6,0,3.9-1.3,3.9-3.9v-17.6C1431.8,619.6,1430.6,618.3,1428,618.3z"/>
	<path class="st2" d="M804.7,622.1c-0.2-0.9-0.3-1.9-0.4-2.8c-1.2-7.8-2.5-16.9-4.2-26.1l-0.1-18.4c-0.1-15.8-5.6-30.8-15.5-42.7
		c-1.1-20.3-6.2-39.5-14.6-56.8c-3.4-7.2-7.2-13.8-11.3-19.8c-4.2-6-8.6-11.5-13.2-16.4c-2.2-2.3-4.4-4.5-6.6-6.6
		c-2-1.9-4-3.7-6.1-5.3c-12.4-10.6-26.6-19.2-42.1-25.3c-5.2-2.1-8.4-3-8.4-3h0c-14.4-4.7-29.7-7.2-45.7-7.2
		c-81.9,0-148.3,66.4-148.3,148.3c0,81.9,66.4,148.3,148.3,148.3c41.5,0,79.1-17.1,106-44.6c1.5,2.9,3,5.9,4.6,8.8l0.1,0.2l0,0.1
		c3.7,6.6,8.8,11.6,14.5,14.4c4.1,2,8.6,3,13.3,3c2.3,0,4.7-0.3,7-0.8c2.9-0.7,5.6-1.8,8.2-3.3c8.3-4.9,14.1-14.1,15.5-24.6
		C806.7,634.6,805.7,628.2,804.7,622.1z M636.5,445.6c2.2,0,4.5,0.1,6.6,0.2c20.6,1.8,36.3,9,47.9,17.1c0.5,0.4,1.1,0.8,1.6,1.2
		c1.6,1.2,3.1,2.4,4.5,3.6c12.5,10.5,22.3,24.3,28,39.9l-40.9,0.2c-0.4-1.9-1.5-3.5-3.1-4.6c-1.2-0.9-2.8-1.4-4.4-1.4
		c-1.2,0-2.3,0.3-3.3,0.8c-2.1,1-3.7,3-4.2,5.3l-41.9,0.2c-1.6-1.9-3.9-3.1-6.6-3.1h-30.5c-4.7,0-8.5,3.8-8.5,8.5v7.1
		c-17.9,12.7-28.4,33.2-28.3,55.2l0,9c-7.2-13.3-11.3-28.6-11.3-44.8C542.1,487.9,584.3,445.6,636.5,445.6z M800.6,640.7
		c-1.2,8.5-5.8,16.6-13,20.9c-2,1.2-4.3,2.1-6.7,2.7c-1.9,0.4-3.9,0.7-5.8,0.7c-3.8,0-7.6-0.8-11-2.5c-5.4-2.6-9.5-7.3-12.4-12.5
		c0,0,0,0,0-0.1c-2.5-4.5-4.8-9.2-7.1-13.8c-0.4-0.7-0.7-1.5-1.1-2.2c-0.5-1.1-1.1-2.3-1.6-3.4c-1.6-3.2-3.6-5.9-6.2-7.8
		c-1.8-1.2-3.8-2.1-6.2-2.5c-0.5-0.1-1.1-0.2-1.6-0.2c-0.1,0-0.3,0-0.4,0c-0.4,0-0.8-0.1-1.1-0.1c-0.1,0-0.2,0-0.2,0
		c-0.1,0-0.2,0-0.3,0c-0.5,0-0.9,0-1.4,0.1c-0.2,0-0.3,0-0.5,0c-0.6,0.1-1.2,0.2-1.7,0.3c-0.1,0-0.3,0.1-0.4,0.1
		c-0.5,0.1-0.9,0.2-1.4,0.3c-0.2,0.1-0.4,0.1-0.5,0.2c-0.6,0.2-1.2,0.4-1.8,0.6c-0.6,0.2-1.3,0.5-1.9,0.6c-0.2,0.1-0.3,0.1-0.5,0.1
		c-0.5,0.1-0.9,0.3-1.4,0.4c-0.3,0.1-0.5,0.1-0.8,0.1c-0.4,0.1-0.7,0.1-1.1,0.2c-0.3,0-0.6,0-0.9,0.1c-0.3,0-0.6,0-0.9,0
		c-0.4,0-0.9,0-1.3-0.1c-0.2,0-0.4,0-0.6,0c-0.6-0.1-1.1-0.2-1.7-0.3c-0.1,0-0.2,0-0.2,0c-1.3-0.3-2.6-0.7-3.9-1.2
		c-0.4-0.2-0.8-0.4-1.1-0.6c-0.5-0.2-1-0.5-1.5-0.8c-0.5-0.3-1-0.6-1.5-0.9c-0.2-0.1-0.3-0.3-0.5-0.4c-0.6-0.5-1.2-0.9-1.8-1.5
		c-0.2-0.2-0.4-0.4-0.6-0.6c-0.5-0.5-1-1-1.5-1.6c-0.3-0.4-0.6-0.7-0.9-1.1c-0.3-0.3-0.5-0.6-0.8-1c-0.5-0.7-1-1.4-1.5-2.2
		c0,0,0,0,0-0.1c0,0,0,0,0,0c-1.3-1.9-2.8-3.5-4.5-4.8c-0.4-0.3-0.7-0.5-1.1-0.7c0,0,0,0,0,0c-0.4-0.3-0.9-0.5-1.3-0.7
		c0,0-0.1,0-0.1,0c-0.3-0.1-0.6-0.3-0.8-0.4c-0.1-0.1-0.3-0.1-0.4-0.2c-0.2-0.1-0.5-0.2-0.7-0.3h0c-0.2-0.1-0.3-0.1-0.5-0.2
		c-0.3-0.1-0.5-0.2-0.8-0.2c-0.1,0-0.3-0.1-0.4-0.1c-0.2-0.1-0.4-0.1-0.6-0.1c0,0,0,0,0,0c-0.2,0-0.4-0.1-0.5-0.1
		c-0.6-0.1-1.2-0.1-1.9-0.1c-0.1,0-0.3,0-0.4,0c-0.1,0-0.1,0-0.2,0c-0.6,0-1.2,0.1-1.8,0.1c-0.1,0-0.3,0-0.4,0.1
		c-0.6,0.1-1.3,0.2-1.9,0.4c-0.1,0-0.2,0-0.2,0.1c-0.6,0.2-1.2,0.4-1.8,0.6c-0.1,0-0.1,0-0.1,0.1c-0.6,0.3-1.2,0.6-1.8,0.9
		c-0.1,0-0.1,0.1-0.2,0.1c-0.3,0.2-0.5,0.3-0.8,0.5c-0.1,0.1-0.2,0.1-0.3,0.2c-0.4,0.3-0.8,0.6-1.2,0.9c-0.2,0.2-0.4,0.3-0.6,0.5
		c-0.2,0.1-0.3,0.3-0.5,0.5c-0.2,0.2-0.5,0.5-0.7,0.7c-0.1,0.1-0.2,0.2-0.2,0.3c-0.3,0.3-0.5,0.6-0.8,0.9c-0.3,0.4-0.5,0.7-0.8,1.1
		c-0.3,0.4-0.5,0.8-0.8,1.2c-0.2,0.2-0.3,0.5-0.5,0.8c-0.2,0.3-0.4,0.6-0.7,0.9c-0.1,0.2-0.3,0.4-0.4,0.6c-0.2,0.3-0.5,0.6-0.8,1
		c-0.1,0.2-0.3,0.3-0.4,0.5c-0.4,0.5-0.8,0.9-1.2,1.3c0,0,0,0,0,0c-0.3,0.3-0.6,0.6-1,0.8c-0.2,0.2-0.4,0.4-0.6,0.5c0,0,0,0-0.1,0
		c0,0,0,0,0,0c0,0,0,0-0.1,0c-0.5,0.4-1.1,0.8-1.6,1.2c-0.4,0.2-0.7,0.5-1.1,0.7c0,0-0.1,0-0.1,0.1c-0.6,0.4-1.2,0.7-1.8,1
		c-0.1,0.1-0.2,0.1-0.4,0.2c-0.6,0.3-1.2,0.5-1.9,0.8c-0.1,0-0.2,0.1-0.3,0.1c-0.7,0.2-1.3,0.4-2,0.5c0,0-0.1,0-0.1,0
		c-0.7,0.1-1.4,0.2-2.1,0.3c-0.1,0-0.2,0-0.2,0c-0.7,0.1-1.3,0.1-2,0.1c-0.2,0-0.4,0-0.7,0c-0.5,0-1.1-0.1-1.6-0.1
		c-0.2,0-0.5-0.1-0.7-0.1c-0.5-0.1-1.1-0.2-1.6-0.3c0,0-0.1,0-0.1,0c-0.2-0.1-0.4-0.1-0.7-0.2c-0.3-0.1-0.6-0.2-0.9-0.3
		c-0.4-0.1-0.9-0.2-1.3-0.4c0,0-0.1,0-0.1,0c-0.6-0.2-1.3-0.4-1.9-0.6c-0.6-0.2-1.1-0.3-1.7-0.4c-0.2,0-0.3-0.1-0.5-0.1
		c-0.3-0.1-0.6-0.1-0.9-0.1h0c-0.3-0.1-0.7-0.1-1-0.1c-0.3,0-0.6,0-0.9-0.1h0c-0.2,0-0.5,0-0.8,0c-0.1,0-0.1,0-0.2,0
		c-0.4,0-0.8,0-1.2,0.1c-0.2,0-0.5,0-0.7,0.1c-0.4,0.1-0.8,0.1-1.2,0.2c-0.2,0-0.4,0.1-0.6,0.1c-0.4,0.1-0.8,0.2-1.1,0.4
		c0,0,0,0,0,0c-0.1,0-0.2,0.1-0.3,0.1c-0.5,0.2-0.9,0.4-1.4,0.6c-0.2,0.1-0.4,0.2-0.5,0.3c-1.6,0.8-3,2-4.3,3.5
		c-1.2,1.3-2.2,2.8-3.2,4.6c-0.2,0.3-0.3,0.6-0.5,0.9c0,0,0,0.1-0.1,0.1c-1,2.1-2.1,4.3-3.1,6.4c0,0,0,0,0,0.1
		c-0.1,0.3-0.2,0.5-0.4,0.8c-0.9,1.9-1.8,3.9-2.7,5.8c-0.5,1-1,2-1.5,3c-1.2,2.2-2.5,4.3-4,6.3c-0.2,0.3-0.5,0.7-0.8,1
		c-1.4,1.9-3,3.6-4.8,5.3c-1,1.1-2.2,2-3.5,2.8c-0.3,0.2-0.6,0.4-1,0.6c-0.4,0.2-0.8,0.4-1.2,0.6c-1.1,0.5-2.2,0.9-3.4,1.3
		c-0.3,0.1-0.6,0.2-0.9,0.3c-0.1,0-0.1,0-0.2,0c-0.7,0.1-1.4,0.2-2.2,0.2c-0.2,0-0.5,0-0.7,0.1c-0.8,0.1-1.5,0.1-2.2,0.1
		c-0.6,0-1.1,0-1.6,0c-0.1,0-0.2,0-0.2,0c-0.5,0-0.9-0.1-1.4-0.1c-0.1,0-0.2,0-0.4,0c-0.4-0.1-0.8-0.1-1.2-0.2c-0.1,0-0.3,0-0.4-0.1
		c-0.5-0.1-0.9-0.2-1.4-0.3c-0.1,0-0.1,0-0.2,0c-0.5-0.1-1-0.3-1.5-0.4c-0.1,0-0.2-0.1-0.2-0.1c-0.4-0.1-0.8-0.3-1.2-0.4
		c-0.1-0.1-0.3-0.1-0.4-0.2c-0.3-0.1-0.7-0.3-1-0.4c-0.2-0.1-0.3-0.1-0.5-0.2c-0.3-0.2-0.6-0.3-1-0.5c-0.1-0.1-0.3-0.1-0.4-0.2
		c-0.4-0.2-0.9-0.5-1.3-0.8c-0.1-0.1-0.2-0.2-0.4-0.2c-0.3-0.2-0.6-0.4-0.9-0.6c-0.2-0.1-0.4-0.3-0.5-0.4c-0.2-0.2-0.5-0.4-0.7-0.5
		c-0.2-0.2-0.4-0.3-0.6-0.5c-0.2-0.2-0.4-0.4-0.6-0.6c-0.2-0.2-0.4-0.4-0.6-0.6c-0.2-0.2-0.3-0.3-0.5-0.5c-0.2-0.2-0.4-0.4-0.6-0.7
		c-1.7-1.9-3.1-4-4.2-6.2c-1.4-2.7-2.2-5.6-2.5-8.6c-0.2-1.5-0.2-3.1-0.1-4.7c0.6-7.9,1.6-15.9,2.7-23.8c0.3-2.2,0.6-4.5,0.9-6.7
		c0-0.1,0-0.3,0.1-0.4c0.7-5.2,1.5-10.3,2.3-15.5l-0.1-15.3c-0.1-22,11.2-41.3,28.3-52.4v-9.8c0-1.8,1.5-3.3,3.3-3.3h30.5
		c1.8,0,3.2,1.4,3.3,3.1l106.6-0.4c0.1-0.8,0.6-1.4,1.1-1.9c0.6-0.5,1.3-0.8,2.1-0.8h30.5c0.6,0,1.1,0.2,1.6,0.4
		c1,0.6,1.7,1.6,1.7,2.9v9.8h-0.4c0,0,0,0,0,0c0.5,0.3,0.9,0.7,1.4,1c0.4,0.3,0.9,0.6,1.3,0.9c0.5,0.4,0.9,0.7,1.4,1.1
		c0.5,0.4,0.9,0.7,1.4,1.1c0.4,0.4,0.8,0.7,1.2,1.1c0.5,0.4,0.9,0.8,1.4,1.3c0.4,0.4,0.7,0.7,1.1,1.1c0.5,0.5,1,1,1.5,1.5
		c0.3,0.3,0.6,0.6,0.9,1c0.6,0.7,1.3,1.4,1.9,2.2c0.1,0.1,0.3,0.3,0.4,0.4c0.7,0.9,1.5,1.8,2.1,2.8c0.1,0.2,0.3,0.4,0.4,0.6
		c7.1,10.1,11.3,22.3,11.3,35.5l0.1,18.8c1.5,8.8,2.9,17.6,4.2,26.4C800.1,626.9,801.5,633.7,800.6,640.7z"/>
</g>
</svg>
